<mxfile host="Electron" agent="Mozilla/5.0 (Macintosh; Intel Mac OS X 10_15_7) AppleWebKit/537.36 (KHTML, like Gecko) draw.io/24.7.17 Chrome/128.0.6613.36 Electron/32.0.1 Safari/537.36" version="24.7.17">
  <diagram name="Sayfa -1" id="oVDYq9cH18P9sjyNdF85">
    <mxGraphModel dx="1307" dy="955" grid="1" gridSize="10" guides="1" tooltips="1" connect="1" arrows="1" fold="1" page="1" pageScale="1" pageWidth="827" pageHeight="1169" math="0" shadow="0">
      <root>
        <mxCell id="0" />
        <mxCell id="1" parent="0" />
        <mxCell id="7Sp8GEkpnkSfQjcxxLti-7" style="edgeStyle=orthogonalEdgeStyle;rounded=0;orthogonalLoop=1;jettySize=auto;html=1;exitX=0.5;exitY=1;exitDx=0;exitDy=0;entryX=0;entryY=0.5;entryDx=0;entryDy=0;endArrow=none;endFill=0;" parent="1" source="7Sp8GEkpnkSfQjcxxLti-3" target="7Sp8GEkpnkSfQjcxxLti-5" edge="1">
          <mxGeometry relative="1" as="geometry" />
        </mxCell>
        <mxCell id="7Sp8GEkpnkSfQjcxxLti-21" style="edgeStyle=orthogonalEdgeStyle;rounded=0;orthogonalLoop=1;jettySize=auto;html=1;entryX=1;entryY=0.5;entryDx=0;entryDy=0;" parent="1" source="7Sp8GEkpnkSfQjcxxLti-3" target="7Sp8GEkpnkSfQjcxxLti-3" edge="1">
          <mxGeometry relative="1" as="geometry">
            <Array as="points">
              <mxPoint x="110" y="110" />
              <mxPoint x="230" y="110" />
              <mxPoint x="230" y="270" />
            </Array>
            <mxPoint x="220" y="270" as="targetPoint" />
          </mxGeometry>
        </mxCell>
        <mxCell id="7Sp8GEkpnkSfQjcxxLti-3" value=":Player" style="rounded=0;whiteSpace=wrap;html=1;" parent="1" vertex="1">
          <mxGeometry x="60" y="240" width="120" height="60" as="geometry" />
        </mxCell>
        <mxCell id="7Sp8GEkpnkSfQjcxxLti-4" value=":GameSystem" style="rounded=0;whiteSpace=wrap;html=1;" parent="1" vertex="1">
          <mxGeometry x="330" y="230" width="120" height="70" as="geometry" />
        </mxCell>
        <mxCell id="7Sp8GEkpnkSfQjcxxLti-5" value=":Inventory" style="rounded=0;whiteSpace=wrap;html=1;" parent="1" vertex="1">
          <mxGeometry x="330" y="410" width="120" height="60" as="geometry" />
        </mxCell>
        <mxCell id="7Sp8GEkpnkSfQjcxxLti-8" value="1:. listEnchantments():" style="text;html=1;align=center;verticalAlign=middle;resizable=0;points=[];autosize=1;strokeColor=none;fillColor=none;" parent="1" vertex="1">
          <mxGeometry x="125" y="410" width="140" height="30" as="geometry" />
        </mxCell>
        <mxCell id="7Sp8GEkpnkSfQjcxxLti-9" value="2: displayObjects" style="text;html=1;align=center;verticalAlign=middle;resizable=0;points=[];autosize=1;strokeColor=none;fillColor=none;" parent="1" vertex="1">
          <mxGeometry x="135" y="440" width="110" height="30" as="geometry" />
        </mxCell>
        <mxCell id="7Sp8GEkpnkSfQjcxxLti-10" value="" style="endArrow=classic;html=1;rounded=0;" parent="1" edge="1">
          <mxGeometry width="50" height="50" relative="1" as="geometry">
            <mxPoint x="238" y="472" as="sourcePoint" />
            <mxPoint x="188" y="472" as="targetPoint" />
          </mxGeometry>
        </mxCell>
        <mxCell id="7Sp8GEkpnkSfQjcxxLti-12" value="" style="endArrow=classic;html=1;rounded=0;entryX=1.013;entryY=-0.133;entryDx=0;entryDy=0;entryPerimeter=0;" parent="1" edge="1">
          <mxGeometry width="50" height="50" relative="1" as="geometry">
            <mxPoint x="178" y="413" as="sourcePoint" />
            <mxPoint x="222.95000000000005" y="413.01" as="targetPoint" />
          </mxGeometry>
        </mxCell>
        <mxCell id="7Sp8GEkpnkSfQjcxxLti-13" value="3: selectEnchantments():" style="text;html=1;align=center;verticalAlign=middle;resizable=0;points=[];autosize=1;strokeColor=none;fillColor=none;" parent="1" vertex="1">
          <mxGeometry x="123" y="388" width="160" height="30" as="geometry" />
        </mxCell>
        <mxCell id="7Sp8GEkpnkSfQjcxxLti-14" value="4:&amp;nbsp;&lt;font style=&quot;font-size: 11px;&quot;&gt;validateEnchantmentAvailability&lt;/font&gt;&lt;span style=&quot;font-size: 7px;&quot;&gt;()&lt;/span&gt;" style="text;html=1;align=center;verticalAlign=middle;resizable=0;points=[];autosize=1;strokeColor=none;fillColor=none;" parent="1" vertex="1">
          <mxGeometry x="405" y="340" width="200" height="30" as="geometry" />
        </mxCell>
        <mxCell id="7Sp8GEkpnkSfQjcxxLti-15" value="" style="endArrow=classic;html=1;rounded=0;" parent="1" edge="1">
          <mxGeometry width="50" height="50" relative="1" as="geometry">
            <mxPoint x="440" y="350" as="sourcePoint" />
            <mxPoint x="440" y="310" as="targetPoint" />
          </mxGeometry>
        </mxCell>
        <mxCell id="7Sp8GEkpnkSfQjcxxLti-18" value="&lt;span style=&quot;caret-color: rgb(0, 0, 0); color: rgb(0, 0, 0); font-family: Helvetica; font-size: 12px; font-style: normal; font-variant-caps: normal; font-weight: 400; letter-spacing: normal; orphans: auto; text-align: center; text-indent: 0px; text-transform: none; white-space: nowrap; widows: auto; word-spacing: 0px; -webkit-text-stroke-width: 0px; background-color: rgb(251, 251, 251); text-decoration: none; display: inline !important; float: none;&quot;&gt;5:&amp;nbsp;&lt;/span&gt;&lt;span style=&quot;font-size: 10px;&quot;&gt;applyEnchantmentEffect()&lt;/span&gt;" style="text;html=1;align=center;verticalAlign=middle;resizable=0;points=[];autosize=1;strokeColor=none;fillColor=none;" parent="1" vertex="1">
          <mxGeometry x="260" y="330" width="150" height="30" as="geometry" />
        </mxCell>
        <mxCell id="7Sp8GEkpnkSfQjcxxLti-19" value="" style="endArrow=classic;html=1;rounded=0;" parent="1" edge="1">
          <mxGeometry width="50" height="50" relative="1" as="geometry">
            <mxPoint x="370" y="330" as="sourcePoint" />
            <mxPoint x="370" y="360" as="targetPoint" />
          </mxGeometry>
        </mxCell>
        <mxCell id="7Sp8GEkpnkSfQjcxxLti-20" value="" style="endArrow=none;html=1;rounded=0;entryX=0.5;entryY=1;entryDx=0;entryDy=0;exitX=0.5;exitY=0;exitDx=0;exitDy=0;" parent="1" source="7Sp8GEkpnkSfQjcxxLti-5" target="7Sp8GEkpnkSfQjcxxLti-4" edge="1">
          <mxGeometry width="50" height="50" relative="1" as="geometry">
            <mxPoint x="350" y="360" as="sourcePoint" />
            <mxPoint x="400" y="310" as="targetPoint" />
          </mxGeometry>
        </mxCell>
        <mxCell id="J4yBN9HX-Fsfq81zey8V-1" value="&lt;span style=&quot;font-size: 9px;&quot;&gt;1.1 filterAvailableEnchantments()&lt;/span&gt;" style="text;html=1;align=center;verticalAlign=middle;resizable=0;points=[];autosize=1;strokeColor=none;fillColor=none;" vertex="1" parent="1">
          <mxGeometry x="135" y="170" width="160" height="30" as="geometry" />
        </mxCell>
        <mxCell id="J4yBN9HX-Fsfq81zey8V-2" value="" style="endArrow=classic;html=1;rounded=0;entryX=1.004;entryY=0.83;entryDx=0;entryDy=0;entryPerimeter=0;exitX=-0.021;exitY=0.855;exitDx=0;exitDy=0;exitPerimeter=0;" edge="1" parent="1" source="7Sp8GEkpnkSfQjcxxLti-4" target="7Sp8GEkpnkSfQjcxxLti-3">
          <mxGeometry width="50" height="50" relative="1" as="geometry">
            <mxPoint x="320" y="390" as="sourcePoint" />
            <mxPoint x="370" y="340" as="targetPoint" />
          </mxGeometry>
        </mxCell>
        <mxCell id="J4yBN9HX-Fsfq81zey8V-3" value="6.&amp;nbsp;&lt;span style=&quot;font-size: 11px;&quot;&gt;applyEnchantment()&lt;/span&gt;" style="text;html=1;align=center;verticalAlign=middle;resizable=0;points=[];autosize=1;strokeColor=none;fillColor=none;" vertex="1" parent="1">
          <mxGeometry x="190" y="300" width="140" height="30" as="geometry" />
        </mxCell>
        <mxCell id="J4yBN9HX-Fsfq81zey8V-4" value="" style="endArrow=classic;html=1;rounded=0;entryX=0.286;entryY=0.667;entryDx=0;entryDy=0;entryPerimeter=0;" edge="1" parent="1" target="J4yBN9HX-Fsfq81zey8V-3">
          <mxGeometry width="50" height="50" relative="1" as="geometry">
            <mxPoint x="273.4" y="320.18" as="sourcePoint" />
            <mxPoint x="235.00000000000003" y="339.99999999999994" as="targetPoint" />
          </mxGeometry>
        </mxCell>
        <mxCell id="J4yBN9HX-Fsfq81zey8V-5" value="&lt;font style=&quot;font-size: 9px;&quot;&gt;7. isAvailableEnchantments()&lt;/font&gt;" style="text;html=1;align=center;verticalAlign=middle;resizable=0;points=[];autosize=1;strokeColor=none;fillColor=none;" vertex="1" parent="1">
          <mxGeometry x="190" y="280" width="140" height="30" as="geometry" />
        </mxCell>
        <mxCell id="J4yBN9HX-Fsfq81zey8V-7" value="8. storeEnchantments()" style="text;html=1;align=center;verticalAlign=middle;resizable=0;points=[];autosize=1;strokeColor=none;fillColor=none;" vertex="1" parent="1">
          <mxGeometry x="125" y="370" width="150" height="30" as="geometry" />
        </mxCell>
      </root>
    </mxGraphModel>
  </diagram>
</mxfile>
